<svg width="1440" height="568" viewBox="0 0 1440 568" fill="none" xmlns="http://www.w3.org/2000/svg">
<g opacity="0.26" filter="url(#filter0_f_1_2026)">
<ellipse cx="719.943" cy="284.103" rx="83" ry="650" transform="rotate(-90.6967 719.943 284.103)" fill="#CA1110"/>
<path d="M718.94 201.609C898.405 199.426 1060.98 206.74 1178.76 220.325C1237.65 227.118 1285.32 235.478 1318.29 244.996C1334.78 249.756 1347.56 254.797 1356.23 260.061C1364.93 265.344 1369.33 270.755 1369.39 276.205C1369.46 281.655 1365.19 287.172 1356.62 292.665C1348.09 298.138 1335.43 303.489 1319.06 308.648C1286.33 318.965 1238.88 328.481 1180.17 336.704C1062.76 353.15 900.411 364.414 720.946 366.596C541.481 368.779 378.902 361.466 261.128 347.88C202.238 341.087 154.569 332.728 121.599 323.21C105.11 318.45 92.3264 313.408 83.6584 308.144C74.9589 302.862 70.557 297.45 70.4907 292C70.4245 286.55 74.6934 281.033 83.2619 275.54C91.7994 270.067 104.456 264.717 120.825 259.557C153.554 249.24 201.005 239.724 259.713 231.501C377.122 215.055 539.475 203.791 718.94 201.609Z" stroke="black"/>
</g>
<defs>
<filter id="filter0_f_1_2026" x="-130.01" y="0.727478" width="1699.91" height="566.75" filterUnits="userSpaceOnUse" color-interpolation-filters="sRGB">
<feFlood flood-opacity="0" result="BackgroundImageFix"/>
<feBlend mode="normal" in="SourceGraphic" in2="BackgroundImageFix" result="shape"/>
<feGaussianBlur stdDeviation="100" result="effect1_foregroundBlur_1_2026"/>
</filter>
</defs>
</svg>
